<svg xmlns="http://www.w3.org/2000/svg" xmlns:xlink="http://www.w3.org/1999/xlink" width="500" zoomAndPan="magnify" viewBox="0 0 375 374.999991" height="500" preserveAspectRatio="xMidYMid meet" version="1.0"><metadata><ContainsAiGeneratedContent>Yes</ContainsAiGeneratedContent></metadata><defs><g/><clipPath id="3c747f6762"><path d="M 0 148 L 88 148 L 88 267.636719 L 0 267.636719 Z M 0 148 " clip-rule="nonzero"/></clipPath><clipPath id="bd4489fad8"><path d="M 26 131.355469 L 108.777344 131.355469 L 108.777344 227 L 26 227 Z M 26 131.355469 " clip-rule="nonzero"/></clipPath></defs><g clip-path="url(#3c747f6762)"><path fill="#019eff" d="M 79.441406 214.277344 C 71.394531 204.914062 58.953125 200.851562 47.152344 197.210938 C 47.152344 197.210938 54.65625 201.101562 58.140625 203.476562 C 57.515625 203.195312 56.90625 202.929688 56.28125 202.664062 C 49.152344 199.601562 41.792969 197.007812 35.039062 193.195312 C 18.550781 183.894531 6.375 167.25 2.515625 148.714844 C 0.671875 159.234375 2.1875 170.3125 6.78125 179.972656 C 11.378906 189.613281 19.019531 197.773438 28.351562 202.992188 C 35.132812 206.777344 42.652344 208.996094 49.949219 211.652344 C 57.25 214.308594 64.53125 217.542969 70.128906 222.9375 C 75.707031 228.328125 79.363281 236.265625 77.863281 243.878906 C 77.628906 236.394531 73.066406 228.109375 67.25 223.40625 C 61.4375 218.683594 53.808594 217.042969 46.714844 214.652344 C 39.621094 212.261719 33.023438 210.433594 26.367188 207.027344 C 15.097656 201.273438 4.28125 192.335938 0.625 180.113281 C 0 196.523438 10.816406 212.746094 26.210938 218.464844 C 38.632812 223.09375 53.449219 223.546875 64.59375 231.484375 C 70.410156 235.625 73.035156 241.238281 73.175781 248.378906 C 73.316406 255.523438 70.128906 262.664062 64.703125 267.304688 C 74.988281 263.914062 83.347656 255.164062 86.242188 244.738281 C 89.148438 234.296875 86.507812 222.5 79.441406 214.277344 Z M 79.441406 214.277344 " fill-opacity="1" fill-rule="nonzero"/></g><path fill="#019eff" d="M 32.820312 188.925781 C 27.710938 185.597656 23.113281 181.519531 19.144531 176.878906 C 18.660156 171.4375 19.269531 165.9375 21.082031 160.78125 C 20.972656 171.171875 26.054688 180.894531 32.820312 188.925781 Z M 32.820312 188.925781 " fill-opacity="1" fill-rule="nonzero"/><path fill="#019eff" d="M 42.324219 226.390625 C 11.925781 222.421875 7.847656 211.339844 7.847656 211.339844 C 9.722656 230.140625 21.003906 230.984375 46.511719 234.53125 C 53.652344 235.53125 58.609375 237.566406 62.015625 239.972656 C 57.828125 237.519531 51.792969 235.984375 43.730469 235.828125 C 19.878906 235.359375 13.800781 226.96875 13.800781 226.96875 C 17.269531 242.269531 26.648438 241.800781 47.996094 242.113281 C 69.34375 242.425781 69 256.445312 69 256.445312 C 69.328125 255.148438 78.175781 231.0625 42.324219 226.390625 Z M 42.324219 226.390625 " fill-opacity="1" fill-rule="nonzero"/><g clip-path="url(#bd4489fad8)"><path fill="#019eff" d="M 32.242188 131.382812 C 30.414062 150.230469 37.085938 169.75 50.089844 183.519531 C 52.746094 186.347656 55.65625 188.925781 58.625 191.429688 C 59.703125 192.179688 60.8125 192.914062 61.953125 193.679688 C 69.453125 184.238281 79.003906 182.425781 79.003906 182.425781 C 69.375 180.894531 68.140625 172.71875 68.140625 172.71875 C 69.390625 179.082031 88.304688 176.269531 93.195312 179.207031 C 98.085938 182.128906 98.539062 187.519531 98.539062 187.519531 C 93.960938 183.832031 89.226562 185.222656 90.851562 187.035156 C 92.492188 188.832031 100.476562 186.910156 105.292969 188.910156 C 108.777344 190.367188 108.261719 193.695312 108.261719 193.695312 C 106.636719 188.410156 91.257812 193.976562 91.257812 193.976562 L 89.554688 193.601562 L 91.164062 194.445312 C 87.945312 202.695312 88.570312 224.796875 88.757812 226.96875 C 87.382812 221.640625 84.832031 216.714844 81.363281 212.667969 C 72.597656 202.476562 58.921875 198.242188 47.917969 194.835938 C 47.667969 194.757812 47.417969 194.726562 47.183594 194.726562 C 46.574219 194.726562 45.996094 194.960938 45.542969 195.351562 C 43.886719 193.945312 42.308594 192.460938 40.808594 190.882812 C 33.445312 183.128906 28.570312 173.0625 27.054688 162.5 C 25.507812 151.917969 27.351562 140.882812 32.242188 131.382812 Z M 32.242188 131.382812 " fill-opacity="1" fill-rule="nonzero"/></g><path stroke-linecap="butt" transform="matrix(0.879881, 0, 0, 0.879881, 103.105061, 192.884577)" fill="none" stroke-linejoin="miter" d="M 5.598698 33.605162 L 7.347869 33.605162 C 7.760745 36.433137 8.892822 38.661776 10.739663 40.28664 C 12.590943 41.907065 14.872856 42.719497 17.585403 42.719497 C 18.681964 42.719497 19.694175 42.581872 20.617595 42.315501 C 21.545455 42.04469 22.33125 41.667331 22.988299 41.178984 C 23.649787 40.686197 24.160332 40.10462 24.515494 39.434252 C 24.875095 38.763885 25.052676 38.009166 25.052676 37.174537 C 25.052676 36.459774 24.937248 35.84712 24.710833 35.327696 C 24.493296 34.803833 24.067102 34.293288 23.43669 33.800501 C 22.810718 33.307714 21.949451 32.806049 20.861769 32.304383 C 19.774086 31.793838 18.371198 31.212261 16.644225 30.559651 C 13.159201 29.218916 10.57984 27.660645 8.906141 25.884837 C 7.241321 24.113468 6.406691 22.013575 6.406691 19.598476 C 6.406691 18.204467 6.673062 16.921446 7.205805 15.758291 C 7.742987 14.595137 8.497705 13.596245 9.46552 12.766055 C 10.437775 11.931425 11.605369 11.283255 12.954983 10.821545 C 14.309037 10.359835 15.809595 10.12454 17.452217 10.12454 C 18.974973 10.12454 20.404498 10.364274 21.745233 10.843742 C 23.081529 11.318771 24.408945 12.033534 25.718604 12.983591 L 26.526596 10.746073 L 27.596521 10.746073 L 28.084868 20.406469 L 26.349016 20.406469 C 25.629813 17.960293 24.511054 16.091255 22.988299 14.794915 C 21.474423 13.503015 19.716373 12.854845 17.714149 12.854845 C 15.867309 12.854845 14.366751 13.307676 13.216915 14.217778 C 12.075958 15.127879 11.50326 16.295473 11.50326 17.720559 C 11.50326 18.346532 11.605369 18.910351 11.809587 19.403137 C 12.022684 19.895924 12.408922 20.370953 12.977181 20.823784 C 13.54544 21.267736 14.322356 21.716127 15.303489 22.177837 C 16.284623 22.635108 17.554326 23.145653 19.103719 23.713911 C 21.190293 24.521904 22.970541 25.338776 24.440022 26.160087 C 25.918382 26.976959 27.125932 27.851544 28.06267 28.788283 C 29.003849 29.729461 29.691974 30.723914 30.135926 31.77164 C 30.588757 32.810488 30.815173 33.955884 30.815173 35.207829 C 30.815173 36.730585 30.486648 38.115715 29.834039 39.367659 C 29.17699 40.619604 28.262449 41.693968 27.081536 42.586312 C 25.909503 43.483095 24.511054 44.184539 22.877311 44.695084 C 21.256886 45.196749 19.46332 45.445363 17.496612 45.445363 C 15.707486 45.445363 14.09594 45.205628 12.661975 44.717281 C 11.236889 44.220055 9.762968 43.420941 8.240213 42.315501 L 7.347869 45.001411 L 6.277945 45.001411 Z M 73.95399 37.804948 C 73.95399 38.932587 74.007265 39.851567 74.109374 40.557451 C 74.215922 41.254456 74.442338 41.791637 74.784181 42.160118 C 75.126024 42.533037 75.605492 42.794969 76.213706 42.945913 C 76.82636 43.092417 77.638792 43.181207 78.651003 43.207844 L 78.651003 45.001411 L 62.242536 45.001411 L 62.242536 43.207844 C 63.347977 43.181207 64.235881 43.092417 64.906248 42.945913 C 65.576616 42.794969 66.09604 42.541916 66.468959 42.182315 C 66.83744 41.827154 67.081613 41.321048 67.197041 40.668439 C 67.321347 40.01139 67.383501 39.159002 67.383501 38.111275 L 67.383501 28.770525 L 50.806332 28.770525 L 50.806332 37.804948 C 50.806332 38.932587 50.864046 39.851567 50.979474 40.557451 C 51.094901 41.254456 51.330196 41.791637 51.689797 42.160118 C 52.053837 42.533037 52.568822 42.794969 53.239189 42.945913 C 53.909557 43.092417 54.793021 43.181207 55.889583 43.207844 L 55.889583 45.001411 L 39.529951 45.001411 L 39.529951 43.207844 C 40.546601 43.181207 41.363473 43.092417 41.971687 42.945913 C 42.584341 42.794969 43.05493 42.541916 43.383455 42.182315 C 43.707539 41.827154 43.929515 41.321048 44.049383 40.668439 C 44.16481 40.01139 44.222524 39.159002 44.222524 38.111275 L 44.222524 17.458627 C 44.222524 16.41978 44.16925 15.58071 44.067141 14.93698 C 43.969471 14.28881 43.765253 13.782705 43.467805 13.409785 C 43.170358 13.041305 42.744164 12.788252 42.193663 12.659506 C 41.638723 12.517442 40.915081 12.419772 40.018298 12.362058 L 40.018298 10.572932 L 55.45451 10.572932 L 55.45451 12.362058 C 54.43342 12.393135 53.620988 12.481925 53.008334 12.637309 C 52.39568 12.779373 51.929531 13.045744 51.601006 13.431983 C 51.272482 13.818221 51.059385 14.355403 50.957276 15.047968 C 50.855167 15.731654 50.806332 16.641756 50.806332 17.778273 L 50.806332 25.995825 L 67.383501 25.995825 L 67.383501 17.458627 C 67.383501 16.41978 67.321347 15.58071 67.197041 14.93698 C 67.081613 14.28881 66.859637 13.782705 66.535552 13.409785 C 66.207028 13.041305 65.736439 12.788252 65.123785 12.659506 C 64.51557 12.517442 63.703138 12.419772 62.690928 12.362058 L 62.690928 10.572932 L 78.158216 10.572932 L 78.158216 12.362058 C 77.261433 12.393135 76.537791 12.481925 75.987291 12.637309 C 75.44123 12.779373 75.019475 13.045744 74.722027 13.431983 C 74.42014 13.818221 74.215922 14.355403 74.109374 15.047968 C 74.007265 15.731654 73.95399 16.641756 73.95399 17.778273 Z M 107.752057 34.586296 L 95.099425 34.586296 C 93.696537 37.742795 92.995092 39.935918 92.995092 41.156786 C 92.995092 42.053569 93.328056 42.621828 93.998424 42.861562 C 94.67767 43.092417 95.685442 43.207844 97.021737 43.207844 L 97.021737 45.001411 L 84.773101 45.001411 L 84.773101 43.207844 C 85.487864 43.123494 86.104957 43.008066 86.619941 42.861562 C 87.143805 42.706179 87.605515 42.497521 88.005072 42.22671 C 88.413508 41.960339 88.768669 41.609617 89.066117 41.178984 C 89.363565 40.743911 89.647694 40.211168 89.918505 39.585196 L 101.674354 10.12454 L 104.981797 10.12454 L 115.667722 36.233358 C 116.293694 37.756114 116.817558 38.950345 117.248191 39.816051 C 117.687703 40.681757 118.149414 41.347685 118.633321 41.813835 C 119.130548 42.271106 119.698806 42.590751 120.338097 42.772771 C 120.977388 42.945913 121.803139 43.079098 122.815349 43.167889 L 122.815349 45.001411 L 105.918536 45.001411 L 105.918536 43.167889 C 107.352501 43.110175 108.382469 42.959231 109.008442 42.719497 C 109.634414 42.479763 109.94518 42.000295 109.94518 41.289972 C 109.94518 40.872657 109.843071 40.339914 109.629974 39.682865 C 109.416877 39.021377 109.137188 38.213384 108.777587 37.258887 Z M 96.129394 31.900387 L 106.770923 31.900387 L 101.629959 18.355411 L 101.452378 18.355411 Z M 166.318207 36.322149 L 172.351515 19.065734 C 173.066278 17.072389 173.42144 15.58071 173.42144 14.599577 C 173.42144 13.676156 173.101794 13.072382 172.462503 12.788252 C 171.823212 12.504123 170.833199 12.362058 169.492464 12.362058 L 169.492464 10.572932 L 182.189492 10.572932 L 182.189492 12.362058 C 181.061854 12.362058 180.040764 12.637309 179.130663 13.192249 C 178.220561 13.73831 177.527996 14.670609 177.048528 15.984707 L 166.273812 45.445363 L 162.300442 45.445363 L 154.517963 21.835994 L 145.66556 45.445363 L 141.954121 45.445363 L 132.466866 19.336545 C 131.907487 17.818229 131.388063 16.592921 130.908595 15.669501 C 130.433566 14.746081 129.927461 14.049076 129.390279 13.574047 C 128.848657 13.094579 128.26708 12.779373 127.641108 12.637309 C 127.015135 12.481925 126.269296 12.406454 125.40359 12.406454 L 125.40359 10.572932 L 142.313722 10.572932 L 142.313722 12.406454 C 140.790966 12.406454 139.747679 12.548518 139.179421 12.832647 C 138.611162 13.116777 138.327033 13.582926 138.327033 14.239975 C 138.327033 14.479709 138.344791 14.715004 138.371428 14.93698 C 138.402505 15.158956 138.460218 15.407569 138.549009 15.691698 C 138.642239 15.975828 138.753227 16.32655 138.886412 16.752744 C 139.024037 17.165619 139.210497 17.685043 139.441352 18.311015 L 145.709955 36.322149 L 152.946373 16.566284 C 152.644485 15.758291 152.347037 15.101242 152.04959 14.599577 C 151.756581 14.089032 151.410299 13.685035 151.001863 13.387587 C 150.602306 13.09014 150.145035 12.877043 149.63893 12.743857 C 149.137264 12.606232 148.524611 12.495244 147.805408 12.406454 L 147.805408 10.572932 L 163.587902 10.572932 L 163.587902 12.406454 C 162.335958 12.406454 161.412538 12.561837 160.813202 12.877043 C 160.218307 13.187809 159.920859 13.791584 159.920859 14.688367 C 159.920859 15.132319 159.987452 15.651743 160.116198 16.246638 C 160.253823 16.845974 160.444722 17.534099 160.684456 18.311015 Z M 209.053028 34.586296 L 196.400396 34.586296 C 194.997508 37.742795 194.291624 39.935918 194.291624 41.156786 C 194.291624 42.053569 194.629027 42.621828 195.299395 42.861562 C 195.974202 43.092417 196.981973 43.207844 198.322708 43.207844 L 198.322708 45.001411 L 186.074072 45.001411 L 186.074072 43.207844 C 186.788835 43.123494 187.401489 43.008066 187.920912 42.861562 C 188.444776 42.706179 188.906486 42.497521 189.306043 42.22671 C 189.714479 41.960339 190.065201 41.609617 190.362649 41.178984 C 190.664536 40.743911 190.944226 40.211168 191.215036 39.585196 L 202.970886 10.12454 L 206.278328 10.12454 L 216.964253 36.233358 C 217.590226 37.756114 218.118529 38.950345 218.549162 39.816051 C 218.984235 40.681757 219.445945 41.347685 219.934292 41.813835 C 220.427079 42.271106 220.995338 42.590751 221.639068 42.772771 C 222.278359 42.945913 223.10411 43.079098 224.11632 43.167889 L 224.11632 45.001411 L 207.219507 45.001411 L 207.219507 43.167889 C 208.649032 43.110175 209.679001 42.959231 210.304973 42.719497 C 210.930945 42.479763 211.246151 42.000295 211.246151 41.289972 C 211.246151 40.872657 211.139603 40.339914 210.930945 39.682865 C 210.717848 39.021377 210.433719 38.213384 210.078558 37.258887 Z M 197.425925 31.900387 L 208.067455 31.900387 L 202.926491 18.355411 L 202.753349 18.355411 Z M 247.543668 37.303283 L 253.35944 22.426451 C 253.918819 20.965848 254.37165 19.771617 254.713493 18.848197 C 255.064215 17.920338 255.326147 17.16118 255.499288 16.566284 C 255.681309 15.966949 255.801176 15.49192 255.858889 15.136758 C 255.916603 14.777157 255.94768 14.435314 255.94768 14.111229 C 255.94768 13.387587 255.676869 12.921438 255.139687 12.699462 C 254.606945 12.477486 253.532581 12.362058 251.921035 12.362058 L 251.921035 10.572932 L 264.622502 10.572932 L 264.622502 12.362058 C 262.14969 12.362058 260.436035 13.569608 259.481538 15.984707 L 247.716809 45.445363 L 244.409367 45.445363 L 233.723442 19.336545 C 233.124107 17.933656 232.586925 16.78826 232.107457 15.900356 C 231.632428 15.003573 231.126323 14.29325 230.589141 13.769386 C 230.060838 13.245523 229.474821 12.890361 228.831091 12.699462 C 228.1918 12.504123 227.437081 12.406454 226.571375 12.406454 L 226.571375 10.572932 L 243.468189 10.572932 L 243.468189 12.406454 C 242.700152 12.43753 242.051982 12.481925 241.528118 12.548518 C 241.004255 12.606232 240.59138 12.699462 240.293932 12.832647 C 240.000923 12.961394 239.796706 13.143414 239.672399 13.36539 C 239.556971 13.591805 239.499258 13.867056 239.499258 14.19558 C 239.499258 14.612895 239.57029 15.101242 239.716794 15.669501 C 239.867738 16.237759 240.094153 16.921446 240.391601 17.720559 Z M 281.923312 25.95143 C 283.832306 25.95143 285.36394 25.893716 286.518216 25.778288 C 287.68581 25.653982 288.587032 25.405369 289.226323 25.036888 C 289.865614 24.663969 290.322884 24.122347 290.589256 23.407585 C 290.860066 22.688382 291.073163 21.716127 291.224107 20.495259 L 292.871169 20.495259 L 292.871169 33.605162 L 291.224107 33.605162 C 291.042087 32.410931 290.802353 31.456435 290.504905 30.746111 C 290.203017 30.02247 289.727989 29.476409 289.075379 29.107928 C 288.41833 28.735009 287.530426 28.499714 286.411667 28.397605 C 285.297348 28.286617 283.801229 28.233343 281.923312 28.233343 L 281.923312 37.445347 C 281.923312 38.399844 282.047619 39.203397 282.296232 39.860446 C 282.549285 40.513056 282.975479 41.045798 283.570374 41.454234 C 284.16971 41.853791 284.959944 42.13792 285.941078 42.302182 C 286.922212 42.462005 288.129762 42.541916 289.563727 42.541916 C 291.259623 42.541916 292.698028 42.422049 293.874501 42.182315 C 295.055413 41.942581 296.032107 41.525266 296.800144 40.930371 C 297.5815 40.331035 298.207472 39.536361 298.678061 38.537469 C 299.15753 37.543017 299.561526 36.282193 299.89005 34.759438 L 301.679177 34.759438 L 300.959975 45.001411 L 270.646931 45.001411 L 270.646931 43.207844 C 271.636944 43.181207 272.444937 43.092417 273.070909 42.945913 C 273.696881 42.794969 274.17191 42.541916 274.500435 42.182315 C 274.828959 41.827154 275.050935 41.321048 275.166363 40.668439 C 275.28179 40.01139 275.343943 39.159002 275.343943 38.111275 L 275.343943 17.458627 C 275.343943 16.41978 275.290669 15.58071 275.18856 14.93698 C 275.086451 14.28881 274.886673 13.782705 274.589225 13.409785 C 274.291777 13.041305 273.865583 12.788252 273.310643 12.659506 C 272.760143 12.517442 272.036501 12.419772 271.139718 12.362058 L 271.139718 10.572932 L 299.401703 10.572932 L 299.716909 19.336545 L 297.794597 19.336545 C 297.612577 18.0846 297.328447 17.054631 296.942209 16.237759 C 296.555971 15.416448 296.018789 14.75496 295.326224 14.262173 C 294.642538 13.764947 293.754634 13.423104 292.662512 13.236644 C 291.579269 13.041305 290.247413 12.939196 288.671383 12.939196 L 283.61477 12.939196 C 282.842293 12.939196 282.367264 13.041305 282.185244 13.236644 C 282.012103 13.423104 281.923312 13.880374 281.923312 14.599577 Z M 281.923312 25.95143 " stroke="#fffef9" stroke-width="0.61479" stroke-opacity="1" stroke-miterlimit="4"/><g fill="#019eff" fill-opacity="1"><g transform="translate(105.909682, 232.479228)"><g><path d="M 2.125 -10.03125 L 3.65625 -10.03125 C 4.019531 -7.539062 5.015625 -5.578125 6.640625 -4.140625 C 8.273438 -2.710938 10.285156 -2 12.671875 -2 C 13.640625 -2 14.53125 -2.117188 15.34375 -2.359375 C 16.15625 -2.597656 16.847656 -2.929688 17.421875 -3.359375 C 18.003906 -3.796875 18.453125 -4.304688 18.765625 -4.890625 C 19.078125 -5.484375 19.234375 -6.148438 19.234375 -6.890625 C 19.234375 -7.515625 19.132812 -8.054688 18.9375 -8.515625 C 18.75 -8.972656 18.378906 -9.414062 17.828125 -9.84375 C 17.273438 -10.28125 16.519531 -10.722656 15.5625 -11.171875 C 14.601562 -11.617188 13.363281 -12.128906 11.84375 -12.703125 C 8.769531 -13.890625 6.5 -15.257812 5.03125 -16.8125 C 3.5625 -18.375 2.828125 -20.21875 2.828125 -22.34375 C 2.828125 -23.582031 3.0625 -24.710938 3.53125 -25.734375 C 4.007812 -26.753906 4.675781 -27.628906 5.53125 -28.359375 C 6.382812 -29.097656 7.40625 -29.671875 8.59375 -30.078125 C 9.789062 -30.484375 11.109375 -30.6875 12.546875 -30.6875 C 13.890625 -30.6875 15.148438 -30.472656 16.328125 -30.046875 C 17.503906 -29.628906 18.671875 -29.003906 19.828125 -28.171875 L 20.53125 -30.140625 L 21.484375 -30.140625 L 21.921875 -21.640625 L 20.375 -21.640625 C 19.75 -23.785156 18.765625 -25.425781 17.421875 -26.5625 C 16.085938 -27.707031 14.539062 -28.28125 12.78125 -28.28125 C 11.15625 -28.28125 9.835938 -27.878906 8.828125 -27.078125 C 7.816406 -26.285156 7.3125 -25.257812 7.3125 -24 C 7.3125 -23.445312 7.40625 -22.953125 7.59375 -22.515625 C 7.78125 -22.085938 8.117188 -21.675781 8.609375 -21.28125 C 9.109375 -20.882812 9.789062 -20.484375 10.65625 -20.078125 C 11.519531 -19.671875 12.632812 -19.222656 14 -18.734375 C 15.84375 -18.023438 17.410156 -17.304688 18.703125 -16.578125 C 20.003906 -15.859375 21.066406 -15.082031 21.890625 -14.25 C 22.722656 -13.425781 23.332031 -12.554688 23.71875 -11.640625 C 24.113281 -10.722656 24.3125 -9.710938 24.3125 -8.609375 C 24.3125 -7.273438 24.019531 -6.054688 23.4375 -4.953125 C 22.863281 -3.859375 22.054688 -2.914062 21.015625 -2.125 C 19.984375 -1.332031 18.753906 -0.710938 17.328125 -0.265625 C 15.898438 0.171875 14.320312 0.390625 12.59375 0.390625 C 11.019531 0.390625 9.601562 0.175781 8.34375 -0.25 C 7.082031 -0.6875 5.785156 -1.390625 4.453125 -2.359375 L 3.65625 0 L 2.71875 0 Z M 2.125 -10.03125 "/></g></g></g><g fill="#019eff" fill-opacity="1"><g transform="translate(136.511923, 232.479228)"><g><path d="M 31.671875 -6.328125 C 31.671875 -5.335938 31.71875 -4.53125 31.8125 -3.90625 C 31.90625 -3.289062 32.101562 -2.816406 32.40625 -2.484375 C 32.707031 -2.160156 33.125 -1.929688 33.65625 -1.796875 C 34.195312 -1.671875 34.910156 -1.597656 35.796875 -1.578125 L 35.796875 0 L 21.359375 0 L 21.359375 -1.578125 C 22.328125 -1.597656 23.109375 -1.671875 23.703125 -1.796875 C 24.296875 -1.929688 24.753906 -2.15625 25.078125 -2.46875 C 25.410156 -2.789062 25.628906 -3.238281 25.734375 -3.8125 C 25.835938 -4.394531 25.890625 -5.144531 25.890625 -6.0625 L 25.890625 -14.28125 L 11.296875 -14.28125 L 11.296875 -6.328125 C 11.296875 -5.335938 11.347656 -4.53125 11.453125 -3.90625 C 11.554688 -3.289062 11.765625 -2.816406 12.078125 -2.484375 C 12.390625 -2.160156 12.84375 -1.929688 13.4375 -1.796875 C 14.03125 -1.671875 14.8125 -1.597656 15.78125 -1.578125 L 15.78125 0 L 1.375 0 L 1.375 -1.578125 C 2.269531 -1.597656 2.984375 -1.671875 3.515625 -1.796875 C 4.054688 -1.929688 4.46875 -2.15625 4.75 -2.46875 C 5.039062 -2.789062 5.238281 -3.238281 5.34375 -3.8125 C 5.457031 -4.394531 5.515625 -5.144531 5.515625 -6.0625 L 5.515625 -24.234375 C 5.515625 -25.148438 5.46875 -25.890625 5.375 -26.453125 C 5.28125 -27.015625 5.101562 -27.457031 4.84375 -27.78125 C 4.582031 -28.113281 4.207031 -28.335938 3.71875 -28.453125 C 3.226562 -28.578125 2.59375 -28.664062 1.8125 -28.71875 L 1.8125 -30.296875 L 15.390625 -30.296875 L 15.390625 -28.71875 C 14.492188 -28.695312 13.773438 -28.617188 13.234375 -28.484375 C 12.703125 -28.347656 12.289062 -28.109375 12 -27.765625 C 11.707031 -27.429688 11.515625 -26.960938 11.421875 -26.359375 C 11.335938 -25.753906 11.296875 -24.953125 11.296875 -23.953125 L 11.296875 -16.71875 L 25.890625 -16.71875 L 25.890625 -24.234375 C 25.890625 -25.148438 25.835938 -25.890625 25.734375 -26.453125 C 25.628906 -27.015625 25.429688 -27.457031 25.140625 -27.78125 C 24.847656 -28.113281 24.429688 -28.335938 23.890625 -28.453125 C 23.359375 -28.578125 22.644531 -28.664062 21.75 -28.71875 L 21.75 -30.296875 L 35.375 -30.296875 L 35.375 -28.71875 C 34.582031 -28.695312 33.941406 -28.617188 33.453125 -28.484375 C 32.972656 -28.347656 32.601562 -28.109375 32.34375 -27.765625 C 32.082031 -27.429688 31.90625 -26.960938 31.8125 -26.359375 C 31.71875 -25.753906 31.671875 -24.953125 31.671875 -23.953125 Z M 31.671875 -6.328125 "/></g></g></g><g fill="#019eff" fill-opacity="1"><g transform="translate(178.206163, 232.479228)"><g><path d="M 19.71875 -9.171875 L 8.578125 -9.171875 C 7.347656 -6.390625 6.734375 -4.460938 6.734375 -3.390625 C 6.734375 -2.597656 7.023438 -2.097656 7.609375 -1.890625 C 8.203125 -1.679688 9.085938 -1.578125 10.265625 -1.578125 L 10.265625 0 L -0.515625 0 L -0.515625 -1.578125 C 0.117188 -1.648438 0.664062 -1.75 1.125 -1.875 C 1.582031 -2.007812 1.988281 -2.195312 2.34375 -2.4375 C 2.695312 -2.675781 3.003906 -2.984375 3.265625 -3.359375 C 3.523438 -3.742188 3.773438 -4.210938 4.015625 -4.765625 L 14.359375 -30.6875 L 17.265625 -30.6875 L 26.671875 -7.71875 C 27.222656 -6.375 27.6875 -5.320312 28.0625 -4.5625 C 28.445312 -3.800781 28.851562 -3.21875 29.28125 -2.8125 C 29.71875 -2.40625 30.21875 -2.125 30.78125 -1.96875 C 31.34375 -1.8125 32.070312 -1.691406 32.96875 -1.609375 L 32.96875 0 L 18.09375 0 L 18.09375 -1.609375 C 19.351562 -1.660156 20.257812 -1.789062 20.8125 -2 C 21.363281 -2.21875 21.640625 -2.640625 21.640625 -3.265625 C 21.640625 -3.628906 21.546875 -4.097656 21.359375 -4.671875 C 21.179688 -5.253906 20.929688 -5.96875 20.609375 -6.8125 Z M 9.484375 -11.53125 L 18.84375 -11.53125 L 14.328125 -23.453125 L 14.15625 -23.453125 Z M 9.484375 -11.53125 "/></g></g></g><g fill="#019eff" fill-opacity="1"><g transform="translate(214.551076, 232.479228)"><g><path d="M 34.890625 -7.625 L 40.203125 -22.8125 C 40.835938 -24.570312 41.15625 -25.882812 41.15625 -26.75 C 41.15625 -27.5625 40.875 -28.09375 40.3125 -28.34375 C 39.75 -28.59375 38.875 -28.71875 37.6875 -28.71875 L 37.6875 -30.296875 L 48.859375 -30.296875 L 48.859375 -28.71875 C 47.867188 -28.71875 46.972656 -28.472656 46.171875 -27.984375 C 45.367188 -27.503906 44.757812 -26.6875 44.34375 -25.53125 L 34.859375 0.390625 L 31.359375 0.390625 L 24.515625 -20.375 L 16.71875 0.390625 L 13.453125 0.390625 L 5.109375 -22.578125 C 4.609375 -23.921875 4.148438 -25 3.734375 -25.8125 C 3.316406 -26.625 2.867188 -27.238281 2.390625 -27.65625 C 1.921875 -28.070312 1.410156 -28.347656 0.859375 -28.484375 C 0.316406 -28.617188 -0.335938 -28.6875 -1.109375 -28.6875 L -1.109375 -30.296875 L 13.765625 -30.296875 L 13.765625 -28.6875 C 12.429688 -28.6875 11.515625 -28.5625 11.015625 -28.3125 C 10.515625 -28.0625 10.265625 -27.644531 10.265625 -27.0625 C 10.265625 -26.851562 10.273438 -26.648438 10.296875 -26.453125 C 10.328125 -26.253906 10.378906 -26.03125 10.453125 -25.78125 C 10.535156 -25.539062 10.632812 -25.234375 10.75 -24.859375 C 10.875 -24.492188 11.039062 -24.035156 11.25 -23.484375 L 16.765625 -7.625 L 23.140625 -25.015625 C 22.867188 -25.722656 22.601562 -26.300781 22.34375 -26.75 C 22.082031 -27.195312 21.773438 -27.550781 21.421875 -27.8125 C 21.066406 -28.070312 20.664062 -28.257812 20.21875 -28.375 C 19.769531 -28.5 19.234375 -28.601562 18.609375 -28.6875 L 18.609375 -30.296875 L 32.5 -30.296875 L 32.5 -28.6875 C 31.394531 -28.6875 30.578125 -28.546875 30.046875 -28.265625 C 29.523438 -27.992188 29.265625 -27.460938 29.265625 -26.671875 C 29.265625 -26.273438 29.320312 -25.816406 29.4375 -25.296875 C 29.5625 -24.773438 29.726562 -24.171875 29.9375 -23.484375 Z M 34.890625 -7.625 "/></g></g></g><g fill="#019eff" fill-opacity="1"><g transform="translate(267.337311, 232.479228)"><g><path d="M 19.71875 -9.171875 L 8.578125 -9.171875 C 7.347656 -6.390625 6.734375 -4.460938 6.734375 -3.390625 C 6.734375 -2.597656 7.023438 -2.097656 7.609375 -1.890625 C 8.203125 -1.679688 9.085938 -1.578125 10.265625 -1.578125 L 10.265625 0 L -0.515625 0 L -0.515625 -1.578125 C 0.117188 -1.648438 0.664062 -1.75 1.125 -1.875 C 1.582031 -2.007812 1.988281 -2.195312 2.34375 -2.4375 C 2.695312 -2.675781 3.003906 -2.984375 3.265625 -3.359375 C 3.523438 -3.742188 3.773438 -4.210938 4.015625 -4.765625 L 14.359375 -30.6875 L 17.265625 -30.6875 L 26.671875 -7.71875 C 27.222656 -6.375 27.6875 -5.320312 28.0625 -4.5625 C 28.445312 -3.800781 28.851562 -3.21875 29.28125 -2.8125 C 29.71875 -2.40625 30.21875 -2.125 30.78125 -1.96875 C 31.34375 -1.8125 32.070312 -1.691406 32.96875 -1.609375 L 32.96875 0 L 18.09375 0 L 18.09375 -1.609375 C 19.351562 -1.660156 20.257812 -1.789062 20.8125 -2 C 21.363281 -2.21875 21.640625 -2.640625 21.640625 -3.265625 C 21.640625 -3.628906 21.546875 -4.097656 21.359375 -4.671875 C 21.179688 -5.253906 20.929688 -5.96875 20.609375 -6.8125 Z M 9.484375 -11.53125 L 18.84375 -11.53125 L 14.328125 -23.453125 L 14.15625 -23.453125 Z M 9.484375 -11.53125 "/></g></g></g><g fill="#019eff" fill-opacity="1"><g transform="translate(303.682218, 232.479228)"><g><path d="M 17.234375 -6.765625 L 22.34375 -19.875 C 22.84375 -21.15625 23.242188 -22.203125 23.546875 -23.015625 C 23.847656 -23.828125 24.078125 -24.492188 24.234375 -25.015625 C 24.390625 -25.546875 24.492188 -25.96875 24.546875 -26.28125 C 24.597656 -26.59375 24.625 -26.894531 24.625 -27.1875 C 24.625 -27.8125 24.390625 -28.222656 23.921875 -28.421875 C 23.453125 -28.617188 22.507812 -28.71875 21.09375 -28.71875 L 21.09375 -30.296875 L 32.265625 -30.296875 L 32.265625 -28.71875 C 30.085938 -28.71875 28.578125 -27.65625 27.734375 -25.53125 L 17.390625 0.390625 L 14.484375 0.390625 L 5.078125 -22.578125 C 4.546875 -23.816406 4.070312 -24.828125 3.65625 -25.609375 C 3.238281 -26.398438 2.789062 -27.023438 2.3125 -27.484375 C 1.84375 -27.941406 1.328125 -28.253906 0.765625 -28.421875 C 0.203125 -28.597656 -0.457031 -28.6875 -1.21875 -28.6875 L -1.21875 -30.296875 L 13.65625 -30.296875 L 13.65625 -28.6875 C 12.96875 -28.65625 12.394531 -28.613281 11.9375 -28.5625 C 11.476562 -28.507812 11.117188 -28.421875 10.859375 -28.296875 C 10.597656 -28.179688 10.414062 -28.023438 10.3125 -27.828125 C 10.207031 -27.640625 10.15625 -27.398438 10.15625 -27.109375 C 10.15625 -26.742188 10.21875 -26.3125 10.34375 -25.8125 C 10.476562 -25.3125 10.675781 -24.707031 10.9375 -24 Z M 17.234375 -6.765625 "/></g></g></g><g fill="#019eff" fill-opacity="1"><g transform="translate(339.8698, 232.479228)"><g><path d="M 11.296875 -16.765625 C 12.972656 -16.765625 14.320312 -16.816406 15.34375 -16.921875 C 16.363281 -17.023438 17.15625 -17.238281 17.71875 -17.5625 C 18.28125 -17.894531 18.679688 -18.375 18.921875 -19 C 19.160156 -19.632812 19.34375 -20.488281 19.46875 -21.5625 L 20.9375 -21.5625 L 20.9375 -10.03125 L 19.46875 -10.03125 C 19.3125 -11.082031 19.101562 -11.921875 18.84375 -12.546875 C 18.582031 -13.179688 18.160156 -13.660156 17.578125 -13.984375 C 17.003906 -14.316406 16.222656 -14.523438 15.234375 -14.609375 C 14.253906 -14.703125 12.941406 -14.75 11.296875 -14.75 L 11.296875 -6.65625 C 11.296875 -5.8125 11.40625 -5.097656 11.625 -4.515625 C 11.84375 -3.941406 12.210938 -3.476562 12.734375 -3.125 C 13.265625 -2.769531 13.960938 -2.519531 14.828125 -2.375 C 15.691406 -2.226562 16.753906 -2.15625 18.015625 -2.15625 C 19.515625 -2.15625 20.78125 -2.257812 21.8125 -2.46875 C 22.851562 -2.6875 23.710938 -3.054688 24.390625 -3.578125 C 25.078125 -4.097656 25.628906 -4.796875 26.046875 -5.671875 C 26.460938 -6.554688 26.816406 -7.671875 27.109375 -9.015625 L 28.6875 -9.015625 L 28.046875 0 L 1.375 0 L 1.375 -1.578125 C 2.238281 -1.597656 2.945312 -1.671875 3.5 -1.796875 C 4.050781 -1.929688 4.46875 -2.15625 4.75 -2.46875 C 5.039062 -2.789062 5.238281 -3.238281 5.34375 -3.8125 C 5.457031 -4.394531 5.515625 -5.144531 5.515625 -6.0625 L 5.515625 -24.234375 C 5.515625 -25.148438 5.46875 -25.890625 5.375 -26.453125 C 5.28125 -27.015625 5.101562 -27.457031 4.84375 -27.78125 C 4.582031 -28.113281 4.207031 -28.335938 3.71875 -28.453125 C 3.226562 -28.578125 2.59375 -28.664062 1.8125 -28.71875 L 1.8125 -30.296875 L 26.671875 -30.296875 L 26.953125 -22.578125 L 25.265625 -22.578125 C 25.097656 -23.679688 24.84375 -24.59375 24.5 -25.3125 C 24.164062 -26.039062 23.695312 -26.617188 23.09375 -27.046875 C 22.488281 -27.484375 21.707031 -27.785156 20.75 -27.953125 C 19.789062 -28.117188 18.617188 -28.203125 17.234375 -28.203125 L 12.78125 -28.203125 C 12.101562 -28.203125 11.6875 -28.117188 11.53125 -27.953125 C 11.375 -27.785156 11.296875 -27.382812 11.296875 -26.75 Z M 11.296875 -16.765625 "/></g></g></g><g fill="#019eff" fill-opacity="1"><g transform="translate(130.99594, 255.303112)"><g><path d="M 14.046875 -10.34375 L 13.3125 -10.34375 C 13.28125 -10.863281 13.195312 -11.296875 13.0625 -11.640625 C 12.9375 -11.984375 12.75 -12.253906 12.5 -12.453125 C 12.257812 -12.648438 11.953125 -12.789062 11.578125 -12.875 C 11.210938 -12.957031 10.773438 -13 10.265625 -13 C 9.816406 -13 9.457031 -12.988281 9.1875 -12.96875 C 8.925781 -12.945312 8.722656 -12.910156 8.578125 -12.859375 C 8.429688 -12.816406 8.335938 -12.765625 8.296875 -12.703125 C 8.253906 -12.640625 8.234375 -12.550781 8.234375 -12.4375 L 8.234375 -2.875 C 8.234375 -2.5 8.257812 -2.171875 8.3125 -1.890625 C 8.375 -1.617188 8.484375 -1.394531 8.640625 -1.21875 C 8.804688 -1.050781 9.039062 -0.921875 9.34375 -0.828125 C 9.644531 -0.742188 10.046875 -0.691406 10.546875 -0.671875 L 10.546875 0 L 3.796875 0 L 3.796875 -0.671875 C 4.296875 -0.691406 4.695312 -0.742188 5 -0.828125 C 5.3125 -0.921875 5.546875 -1.050781 5.703125 -1.21875 C 5.867188 -1.394531 5.976562 -1.617188 6.03125 -1.890625 C 6.082031 -2.171875 6.109375 -2.5 6.109375 -2.875 L 6.109375 -12.4375 C 6.109375 -12.550781 6.085938 -12.640625 6.046875 -12.703125 C 6.003906 -12.765625 5.921875 -12.816406 5.796875 -12.859375 C 5.671875 -12.910156 5.492188 -12.945312 5.265625 -12.96875 C 5.046875 -12.988281 4.742188 -13 4.359375 -13 C 3.898438 -13 3.46875 -12.976562 3.0625 -12.9375 C 2.664062 -12.90625 2.320312 -12.800781 2.03125 -12.625 C 1.738281 -12.457031 1.5 -12.191406 1.3125 -11.828125 C 1.132812 -11.472656 1.039062 -10.976562 1.03125 -10.34375 L 0.375 -10.34375 L 0.375 -13.765625 L 13.875 -13.765625 Z M 14.046875 -10.34375 "/></g></g></g><g fill="#019eff" fill-opacity="1"><g transform="translate(149.459418, 255.303112)"><g><path d="M 4.640625 -7.5625 C 5.285156 -7.5625 5.828125 -7.597656 6.265625 -7.671875 C 6.703125 -7.753906 7.046875 -7.878906 7.296875 -8.046875 C 7.554688 -8.210938 7.742188 -8.425781 7.859375 -8.6875 C 7.972656 -8.945312 8.03125 -9.253906 8.03125 -9.609375 L 8.65625 -9.609375 L 8.65625 -4.734375 L 8.03125 -4.734375 C 8.03125 -5.085938 7.976562 -5.394531 7.875 -5.65625 C 7.769531 -5.925781 7.585938 -6.144531 7.328125 -6.3125 C 7.078125 -6.488281 6.734375 -6.617188 6.296875 -6.703125 C 5.867188 -6.796875 5.316406 -6.84375 4.640625 -6.84375 L 4.640625 -2.8125 C 4.640625 -2.414062 4.6875 -2.085938 4.78125 -1.828125 C 4.882812 -1.578125 5.050781 -1.367188 5.28125 -1.203125 C 5.507812 -1.046875 5.816406 -0.929688 6.203125 -0.859375 C 6.585938 -0.796875 7.054688 -0.765625 7.609375 -0.765625 C 8.242188 -0.765625 8.78125 -0.804688 9.21875 -0.890625 C 9.664062 -0.984375 10.035156 -1.140625 10.328125 -1.359375 C 10.628906 -1.578125 10.867188 -1.859375 11.046875 -2.203125 C 11.222656 -2.554688 11.375 -2.992188 11.5 -3.515625 L 12.171875 -3.515625 L 11.90625 0 L 0.796875 0 L 0.796875 -0.671875 C 1.222656 -0.691406 1.5625 -0.726562 1.8125 -0.78125 C 2.070312 -0.84375 2.269531 -0.945312 2.40625 -1.09375 C 2.550781 -1.238281 2.644531 -1.441406 2.6875 -1.703125 C 2.738281 -1.960938 2.765625 -2.300781 2.765625 -2.71875 L 2.765625 -11.046875 C 2.765625 -11.460938 2.742188 -11.796875 2.703125 -12.046875 C 2.660156 -12.304688 2.578125 -12.507812 2.453125 -12.65625 C 2.328125 -12.8125 2.144531 -12.914062 1.90625 -12.96875 C 1.675781 -13.019531 1.367188 -13.054688 0.984375 -13.078125 L 0.984375 -13.765625 L 11.3125 -13.765625 L 11.46875 -10.625 L 10.84375 -10.625 C 10.78125 -11.09375 10.664062 -11.476562 10.5 -11.78125 C 10.34375 -12.09375 10.125 -12.335938 9.84375 -12.515625 C 9.5625 -12.691406 9.207031 -12.816406 8.78125 -12.890625 C 8.351562 -12.960938 7.832031 -13 7.21875 -13 L 4.953125 -13 C 4.742188 -13 4.640625 -12.894531 4.640625 -12.6875 Z M 4.640625 -7.5625 "/></g></g></g><g fill="#019eff" fill-opacity="1"><g transform="translate(166.546857, 255.303112)"><g><path d="M 12.3125 -13.765625 L 12.8125 -13.765625 L 12.984375 -9.65625 L 12.3125 -9.65625 C 12.050781 -10.695312 11.546875 -11.515625 10.796875 -12.109375 C 10.046875 -12.710938 9.140625 -13.015625 8.078125 -13.015625 C 7.347656 -13.015625 6.695312 -12.867188 6.125 -12.578125 C 5.550781 -12.296875 5.066406 -11.882812 4.671875 -11.34375 C 4.285156 -10.8125 3.988281 -10.15625 3.78125 -9.375 C 3.570312 -8.601562 3.46875 -7.726562 3.46875 -6.75 C 3.46875 -4.832031 3.863281 -3.359375 4.65625 -2.328125 C 5.457031 -1.296875 6.617188 -0.78125 8.140625 -0.78125 C 10.429688 -0.78125 11.90625 -2.003906 12.5625 -4.453125 L 13.296875 -4.453125 L 13.296875 0 L 12.671875 0 L 12.265625 -1.40625 C 11.015625 -0.351562 9.5 0.171875 7.71875 0.171875 C 6.707031 0.171875 5.789062 0.015625 4.96875 -0.296875 C 4.15625 -0.617188 3.457031 -1.078125 2.875 -1.671875 C 2.300781 -2.265625 1.859375 -2.984375 1.546875 -3.828125 C 1.234375 -4.671875 1.078125 -5.613281 1.078125 -6.65625 C 1.078125 -7.738281 1.242188 -8.722656 1.578125 -9.609375 C 1.910156 -10.503906 2.375 -11.273438 2.96875 -11.921875 C 3.570312 -12.566406 4.296875 -13.0625 5.140625 -13.40625 C 5.984375 -13.757812 6.910156 -13.9375 7.921875 -13.9375 C 8.628906 -13.9375 9.300781 -13.832031 9.9375 -13.625 C 10.570312 -13.425781 11.257812 -13.101562 12 -12.65625 Z M 12.3125 -13.765625 "/></g></g></g><g fill="#019eff" fill-opacity="1"><g transform="translate(184.992464, 255.303112)"><g><path d="M 13.765625 -2.84375 C 13.765625 -2.382812 13.785156 -2.015625 13.828125 -1.734375 C 13.878906 -1.460938 13.972656 -1.25 14.109375 -1.09375 C 14.242188 -0.945312 14.441406 -0.84375 14.703125 -0.78125 C 14.960938 -0.726562 15.300781 -0.691406 15.71875 -0.671875 L 15.71875 0 L 9.921875 0 L 9.921875 -0.671875 C 10.335938 -0.691406 10.671875 -0.726562 10.921875 -0.78125 C 11.179688 -0.84375 11.382812 -0.945312 11.53125 -1.09375 C 11.675781 -1.238281 11.769531 -1.441406 11.8125 -1.703125 C 11.863281 -1.960938 11.890625 -2.300781 11.890625 -2.71875 L 11.890625 -6.59375 L 4.640625 -6.59375 L 4.640625 -2.84375 C 4.640625 -2.382812 4.664062 -2.015625 4.71875 -1.734375 C 4.769531 -1.460938 4.863281 -1.25 5 -1.09375 C 5.132812 -0.945312 5.328125 -0.84375 5.578125 -0.78125 C 5.835938 -0.726562 6.175781 -0.691406 6.59375 -0.671875 L 6.59375 0 L 0.796875 0 L 0.796875 -0.671875 C 1.222656 -0.691406 1.5625 -0.726562 1.8125 -0.78125 C 2.070312 -0.84375 2.269531 -0.945312 2.40625 -1.09375 C 2.550781 -1.238281 2.644531 -1.441406 2.6875 -1.703125 C 2.738281 -1.960938 2.765625 -2.300781 2.765625 -2.71875 L 2.765625 -11.046875 C 2.765625 -11.460938 2.742188 -11.796875 2.703125 -12.046875 C 2.660156 -12.304688 2.578125 -12.507812 2.453125 -12.65625 C 2.328125 -12.8125 2.144531 -12.914062 1.90625 -12.96875 C 1.675781 -13.019531 1.367188 -13.054688 0.984375 -13.078125 L 0.984375 -13.765625 L 6.421875 -13.765625 L 6.421875 -13.078125 C 6.035156 -13.066406 5.722656 -13.03125 5.484375 -12.96875 C 5.253906 -12.914062 5.078125 -12.8125 4.953125 -12.65625 C 4.828125 -12.5 4.742188 -12.28125 4.703125 -12 C 4.660156 -11.726562 4.640625 -11.367188 4.640625 -10.921875 L 4.640625 -7.484375 L 11.890625 -7.484375 L 11.890625 -11.046875 C 11.890625 -11.460938 11.867188 -11.796875 11.828125 -12.046875 C 11.785156 -12.304688 11.703125 -12.507812 11.578125 -12.65625 C 11.453125 -12.8125 11.269531 -12.914062 11.03125 -12.96875 C 10.789062 -13.019531 10.476562 -13.054688 10.09375 -13.078125 L 10.09375 -13.765625 L 15.53125 -13.765625 L 15.53125 -13.078125 C 15.15625 -13.066406 14.847656 -13.03125 14.609375 -12.96875 C 14.378906 -12.914062 14.203125 -12.8125 14.078125 -12.65625 C 13.953125 -12.5 13.867188 -12.28125 13.828125 -12 C 13.785156 -11.726562 13.765625 -11.367188 13.765625 -10.921875 Z M 13.765625 -2.84375 "/></g></g></g><g fill="#019eff" fill-opacity="1"><g transform="translate(205.636175, 255.303112)"><g><path d="M 12.40625 0.171875 L 3.921875 -11.015625 L 3.84375 -11.015625 L 3.84375 -3.375 C 3.84375 -2.78125 3.863281 -2.3125 3.90625 -1.96875 C 3.945312 -1.625 4.03125 -1.351562 4.15625 -1.15625 C 4.28125 -0.96875 4.457031 -0.84375 4.6875 -0.78125 C 4.925781 -0.726562 5.234375 -0.691406 5.609375 -0.671875 L 5.609375 0 L 0.796875 0 L 0.796875 -0.671875 C 1.222656 -0.691406 1.5625 -0.734375 1.8125 -0.796875 C 2.070312 -0.859375 2.269531 -0.976562 2.40625 -1.15625 C 2.550781 -1.34375 2.644531 -1.597656 2.6875 -1.921875 C 2.738281 -2.242188 2.765625 -2.6875 2.765625 -3.25 L 2.765625 -10.515625 C 2.765625 -11.015625 2.742188 -11.425781 2.703125 -11.75 C 2.660156 -12.082031 2.578125 -12.34375 2.453125 -12.53125 C 2.328125 -12.71875 2.144531 -12.847656 1.90625 -12.921875 C 1.675781 -13.003906 1.367188 -13.054688 0.984375 -13.078125 L 0.984375 -13.765625 L 4.515625 -13.765625 L 12.328125 -3.34375 L 12.40625 -3.34375 L 12.40625 -10.390625 C 12.40625 -10.972656 12.382812 -11.4375 12.34375 -11.78125 C 12.300781 -12.132812 12.21875 -12.40625 12.09375 -12.59375 C 11.96875 -12.789062 11.785156 -12.914062 11.546875 -12.96875 C 11.316406 -13.03125 11.015625 -13.066406 10.640625 -13.078125 L 10.640625 -13.765625 L 15.4375 -13.765625 L 15.4375 -13.078125 C 15.019531 -13.066406 14.679688 -13.03125 14.421875 -12.96875 C 14.171875 -12.90625 13.972656 -12.78125 13.828125 -12.59375 C 13.691406 -12.414062 13.597656 -12.160156 13.546875 -11.828125 C 13.503906 -11.492188 13.484375 -11.054688 13.484375 -10.515625 L 13.484375 0.171875 Z M 12.40625 0.171875 "/></g></g></g><g fill="#019eff" fill-opacity="1"><g transform="translate(225.868851, 255.303112)"><g><path d="M 8.453125 -13.9375 C 9.503906 -13.9375 10.484375 -13.75 11.390625 -13.375 C 12.296875 -13.007812 13.082031 -12.503906 13.75 -11.859375 C 14.414062 -11.222656 14.9375 -10.46875 15.3125 -9.59375 C 15.695312 -8.726562 15.890625 -7.789062 15.890625 -6.78125 C 15.890625 -5.8125 15.695312 -4.898438 15.3125 -4.046875 C 14.925781 -3.203125 14.398438 -2.46875 13.734375 -1.84375 C 13.066406 -1.21875 12.28125 -0.722656 11.375 -0.359375 C 10.46875 -0.00390625 9.492188 0.171875 8.453125 0.171875 C 7.421875 0.171875 6.453125 -0.00390625 5.546875 -0.359375 C 4.640625 -0.722656 3.851562 -1.21875 3.1875 -1.84375 C 2.519531 -2.46875 1.988281 -3.203125 1.59375 -4.046875 C 1.207031 -4.898438 1.015625 -5.8125 1.015625 -6.78125 C 1.015625 -7.789062 1.203125 -8.726562 1.578125 -9.59375 C 1.960938 -10.46875 2.488281 -11.222656 3.15625 -11.859375 C 3.832031 -12.503906 4.617188 -13.007812 5.515625 -13.375 C 6.421875 -13.75 7.398438 -13.9375 8.453125 -13.9375 Z M 8.453125 -0.796875 C 9.242188 -0.796875 9.953125 -0.929688 10.578125 -1.203125 C 11.203125 -1.484375 11.738281 -1.878906 12.1875 -2.390625 C 12.632812 -2.898438 12.972656 -3.519531 13.203125 -4.25 C 13.441406 -4.988281 13.5625 -5.8125 13.5625 -6.71875 C 13.5625 -7.675781 13.441406 -8.535156 13.203125 -9.296875 C 12.972656 -10.066406 12.632812 -10.722656 12.1875 -11.265625 C 11.75 -11.804688 11.210938 -12.222656 10.578125 -12.515625 C 9.953125 -12.804688 9.242188 -12.953125 8.453125 -12.953125 C 7.671875 -12.953125 6.960938 -12.804688 6.328125 -12.515625 C 5.691406 -12.222656 5.15625 -11.804688 4.71875 -11.265625 C 4.28125 -10.722656 3.941406 -10.066406 3.703125 -9.296875 C 3.460938 -8.535156 3.34375 -7.675781 3.34375 -6.71875 C 3.34375 -5.8125 3.460938 -4.988281 3.703125 -4.25 C 3.941406 -3.519531 4.28125 -2.898438 4.71875 -2.390625 C 5.15625 -1.878906 5.691406 -1.484375 6.328125 -1.203125 C 6.960938 -0.929688 7.671875 -0.796875 8.453125 -0.796875 Z M 8.453125 -0.796875 "/></g></g></g><g fill="#019eff" fill-opacity="1"><g transform="translate(246.887851, 255.303112)"><g><path d="M 12.359375 0 L 0.796875 0 L 0.796875 -0.671875 C 1.222656 -0.691406 1.5625 -0.726562 1.8125 -0.78125 C 2.070312 -0.84375 2.269531 -0.945312 2.40625 -1.09375 C 2.550781 -1.238281 2.644531 -1.441406 2.6875 -1.703125 C 2.738281 -1.960938 2.765625 -2.300781 2.765625 -2.71875 L 2.765625 -11.046875 C 2.765625 -11.460938 2.742188 -11.796875 2.703125 -12.046875 C 2.660156 -12.304688 2.578125 -12.507812 2.453125 -12.65625 C 2.328125 -12.8125 2.144531 -12.914062 1.90625 -12.96875 C 1.675781 -13.019531 1.367188 -13.054688 0.984375 -13.078125 L 0.984375 -13.765625 L 6.421875 -13.765625 L 6.421875 -13.078125 C 6.035156 -13.066406 5.722656 -13.03125 5.484375 -12.96875 C 5.253906 -12.914062 5.078125 -12.8125 4.953125 -12.65625 C 4.828125 -12.5 4.742188 -12.28125 4.703125 -12 C 4.660156 -11.726562 4.640625 -11.367188 4.640625 -10.921875 L 4.640625 -3.21875 C 4.640625 -2.71875 4.691406 -2.304688 4.796875 -1.984375 C 4.898438 -1.671875 5.070312 -1.425781 5.3125 -1.25 C 5.5625 -1.082031 5.890625 -0.960938 6.296875 -0.890625 C 6.703125 -0.828125 7.210938 -0.796875 7.828125 -0.796875 C 8.503906 -0.796875 9.078125 -0.832031 9.546875 -0.90625 C 10.015625 -0.988281 10.40625 -1.128906 10.71875 -1.328125 C 11.03125 -1.523438 11.28125 -1.800781 11.46875 -2.15625 C 11.65625 -2.507812 11.8125 -2.960938 11.9375 -3.515625 L 12.625 -3.515625 Z M 12.359375 0 "/></g></g></g><g fill="#019eff" fill-opacity="1"><g transform="translate(263.993146, 255.303112)"><g><path d="M 8.453125 -13.9375 C 9.503906 -13.9375 10.484375 -13.75 11.390625 -13.375 C 12.296875 -13.007812 13.082031 -12.503906 13.75 -11.859375 C 14.414062 -11.222656 14.9375 -10.46875 15.3125 -9.59375 C 15.695312 -8.726562 15.890625 -7.789062 15.890625 -6.78125 C 15.890625 -5.8125 15.695312 -4.898438 15.3125 -4.046875 C 14.925781 -3.203125 14.398438 -2.46875 13.734375 -1.84375 C 13.066406 -1.21875 12.28125 -0.722656 11.375 -0.359375 C 10.46875 -0.00390625 9.492188 0.171875 8.453125 0.171875 C 7.421875 0.171875 6.453125 -0.00390625 5.546875 -0.359375 C 4.640625 -0.722656 3.851562 -1.21875 3.1875 -1.84375 C 2.519531 -2.46875 1.988281 -3.203125 1.59375 -4.046875 C 1.207031 -4.898438 1.015625 -5.8125 1.015625 -6.78125 C 1.015625 -7.789062 1.203125 -8.726562 1.578125 -9.59375 C 1.960938 -10.46875 2.488281 -11.222656 3.15625 -11.859375 C 3.832031 -12.503906 4.617188 -13.007812 5.515625 -13.375 C 6.421875 -13.75 7.398438 -13.9375 8.453125 -13.9375 Z M 8.453125 -0.796875 C 9.242188 -0.796875 9.953125 -0.929688 10.578125 -1.203125 C 11.203125 -1.484375 11.738281 -1.878906 12.1875 -2.390625 C 12.632812 -2.898438 12.972656 -3.519531 13.203125 -4.25 C 13.441406 -4.988281 13.5625 -5.8125 13.5625 -6.71875 C 13.5625 -7.675781 13.441406 -8.535156 13.203125 -9.296875 C 12.972656 -10.066406 12.632812 -10.722656 12.1875 -11.265625 C 11.75 -11.804688 11.210938 -12.222656 10.578125 -12.515625 C 9.953125 -12.804688 9.242188 -12.953125 8.453125 -12.953125 C 7.671875 -12.953125 6.960938 -12.804688 6.328125 -12.515625 C 5.691406 -12.222656 5.15625 -11.804688 4.71875 -11.265625 C 4.28125 -10.722656 3.941406 -10.066406 3.703125 -9.296875 C 3.460938 -8.535156 3.34375 -7.675781 3.34375 -6.71875 C 3.34375 -5.8125 3.460938 -4.988281 3.703125 -4.25 C 3.941406 -3.519531 4.28125 -2.898438 4.71875 -2.390625 C 5.15625 -1.878906 5.691406 -1.484375 6.328125 -1.203125 C 6.960938 -0.929688 7.671875 -0.796875 8.453125 -0.796875 Z M 8.453125 -0.796875 "/></g></g></g><g fill="#019eff" fill-opacity="1"><g transform="translate(285.012154, 255.303112)"><g><path d="M 7.65625 0.171875 C 6.632812 0.171875 5.71875 0.015625 4.90625 -0.296875 C 4.101562 -0.617188 3.414062 -1.078125 2.84375 -1.671875 C 2.269531 -2.265625 1.832031 -2.984375 1.53125 -3.828125 C 1.226562 -4.671875 1.078125 -5.613281 1.078125 -6.65625 C 1.078125 -7.738281 1.242188 -8.722656 1.578125 -9.609375 C 1.910156 -10.503906 2.375 -11.273438 2.96875 -11.921875 C 3.570312 -12.566406 4.296875 -13.0625 5.140625 -13.40625 C 5.984375 -13.757812 6.910156 -13.9375 7.921875 -13.9375 C 8.628906 -13.9375 9.300781 -13.832031 9.9375 -13.625 C 10.570312 -13.425781 11.257812 -13.101562 12 -12.65625 L 12.375 -13.765625 L 13 -13.765625 L 12.765625 -9.65625 L 11.90625 -9.65625 C 11.90625 -10.238281 11.796875 -10.738281 11.578125 -11.15625 C 11.359375 -11.582031 11.066406 -11.929688 10.703125 -12.203125 C 10.347656 -12.484375 9.941406 -12.6875 9.484375 -12.8125 C 9.023438 -12.945312 8.554688 -13.015625 8.078125 -13.015625 C 7.347656 -13.015625 6.695312 -12.867188 6.125 -12.578125 C 5.550781 -12.296875 5.066406 -11.882812 4.671875 -11.34375 C 4.285156 -10.8125 3.988281 -10.15625 3.78125 -9.375 C 3.570312 -8.601562 3.46875 -7.726562 3.46875 -6.75 C 3.46875 -4.832031 3.863281 -3.359375 4.65625 -2.328125 C 5.457031 -1.296875 6.617188 -0.78125 8.140625 -0.78125 C 8.703125 -0.78125 9.207031 -0.847656 9.65625 -0.984375 C 10.113281 -1.128906 10.5 -1.316406 10.8125 -1.546875 C 11.132812 -1.773438 11.375 -2.039062 11.53125 -2.34375 C 11.695312 -2.65625 11.78125 -2.976562 11.78125 -3.3125 C 11.78125 -4 11.640625 -4.460938 11.359375 -4.703125 C 11.078125 -4.953125 10.617188 -5.078125 9.984375 -5.078125 L 9.984375 -5.75 L 15.0625 -5.75 L 15.0625 -5.078125 C 14.78125 -5.078125 14.539062 -5.050781 14.34375 -5 C 14.15625 -4.957031 14.003906 -4.875 13.890625 -4.75 C 13.785156 -4.625 13.710938 -4.457031 13.671875 -4.25 C 13.628906 -4.050781 13.609375 -3.796875 13.609375 -3.484375 L 13.609375 -1.484375 C 13.378906 -1.484375 13.171875 -1.472656 12.984375 -1.453125 C 12.796875 -1.441406 12.597656 -1.398438 12.390625 -1.328125 C 12.191406 -1.265625 11.972656 -1.175781 11.734375 -1.0625 C 11.492188 -0.945312 11.207031 -0.796875 10.875 -0.609375 C 10.457031 -0.367188 9.972656 -0.175781 9.421875 -0.03125 C 8.878906 0.101562 8.289062 0.171875 7.65625 0.171875 Z M 7.65625 0.171875 "/></g></g></g><g fill="#019eff" fill-opacity="1"><g transform="translate(304.67298, 255.303112)"><g><path d="M 4.640625 -3.375 C 4.640625 -2.78125 4.664062 -2.3125 4.71875 -1.96875 C 4.769531 -1.625 4.863281 -1.351562 5 -1.15625 C 5.132812 -0.96875 5.328125 -0.84375 5.578125 -0.78125 C 5.835938 -0.726562 6.175781 -0.691406 6.59375 -0.671875 L 6.59375 0 L 0.796875 0 L 0.796875 -0.671875 C 1.222656 -0.691406 1.5625 -0.734375 1.8125 -0.796875 C 2.070312 -0.859375 2.269531 -0.976562 2.40625 -1.15625 C 2.550781 -1.34375 2.644531 -1.597656 2.6875 -1.921875 C 2.738281 -2.242188 2.765625 -2.6875 2.765625 -3.25 L 2.765625 -10.515625 C 2.765625 -11.015625 2.742188 -11.425781 2.703125 -11.75 C 2.660156 -12.082031 2.578125 -12.34375 2.453125 -12.53125 C 2.328125 -12.71875 2.144531 -12.847656 1.90625 -12.921875 C 1.675781 -13.003906 1.367188 -13.054688 0.984375 -13.078125 L 0.984375 -13.765625 L 6.421875 -13.765625 L 6.421875 -13.078125 C 6.035156 -13.066406 5.722656 -13.019531 5.484375 -12.9375 C 5.253906 -12.851562 5.078125 -12.710938 4.953125 -12.515625 C 4.828125 -12.316406 4.742188 -12.046875 4.703125 -11.703125 C 4.660156 -11.359375 4.640625 -10.921875 4.640625 -10.390625 Z M 4.640625 -3.375 "/></g></g></g><g fill="#019eff" fill-opacity="1"><g transform="translate(316.202627, 255.303112)"><g><path d="M 4.640625 -7.5625 C 5.285156 -7.5625 5.828125 -7.597656 6.265625 -7.671875 C 6.703125 -7.753906 7.046875 -7.878906 7.296875 -8.046875 C 7.554688 -8.210938 7.742188 -8.425781 7.859375 -8.6875 C 7.972656 -8.945312 8.03125 -9.253906 8.03125 -9.609375 L 8.65625 -9.609375 L 8.65625 -4.734375 L 8.03125 -4.734375 C 8.03125 -5.085938 7.976562 -5.394531 7.875 -5.65625 C 7.769531 -5.925781 7.585938 -6.144531 7.328125 -6.3125 C 7.078125 -6.488281 6.734375 -6.617188 6.296875 -6.703125 C 5.867188 -6.796875 5.316406 -6.84375 4.640625 -6.84375 L 4.640625 -2.8125 C 4.640625 -2.414062 4.6875 -2.085938 4.78125 -1.828125 C 4.882812 -1.578125 5.050781 -1.367188 5.28125 -1.203125 C 5.507812 -1.046875 5.816406 -0.929688 6.203125 -0.859375 C 6.585938 -0.796875 7.054688 -0.765625 7.609375 -0.765625 C 8.242188 -0.765625 8.78125 -0.804688 9.21875 -0.890625 C 9.664062 -0.984375 10.035156 -1.140625 10.328125 -1.359375 C 10.628906 -1.578125 10.867188 -1.859375 11.046875 -2.203125 C 11.222656 -2.554688 11.375 -2.992188 11.5 -3.515625 L 12.171875 -3.515625 L 11.90625 0 L 0.796875 0 L 0.796875 -0.671875 C 1.222656 -0.691406 1.5625 -0.726562 1.8125 -0.78125 C 2.070312 -0.84375 2.269531 -0.945312 2.40625 -1.09375 C 2.550781 -1.238281 2.644531 -1.441406 2.6875 -1.703125 C 2.738281 -1.960938 2.765625 -2.300781 2.765625 -2.71875 L 2.765625 -11.046875 C 2.765625 -11.460938 2.742188 -11.796875 2.703125 -12.046875 C 2.660156 -12.304688 2.578125 -12.507812 2.453125 -12.65625 C 2.328125 -12.8125 2.144531 -12.914062 1.90625 -12.96875 C 1.675781 -13.019531 1.367188 -13.054688 0.984375 -13.078125 L 0.984375 -13.765625 L 11.3125 -13.765625 L 11.46875 -10.625 L 10.84375 -10.625 C 10.78125 -11.09375 10.664062 -11.476562 10.5 -11.78125 C 10.34375 -12.09375 10.125 -12.335938 9.84375 -12.515625 C 9.5625 -12.691406 9.207031 -12.816406 8.78125 -12.890625 C 8.351562 -12.960938 7.832031 -13 7.21875 -13 L 4.953125 -13 C 4.742188 -13 4.640625 -12.894531 4.640625 -12.6875 Z M 4.640625 -7.5625 "/></g></g></g><g fill="#019eff" fill-opacity="1"><g transform="translate(333.290072, 255.303112)"><g><path d="M 1.03125 -4.203125 L 1.703125 -4.203125 C 1.785156 -3.660156 1.941406 -3.175781 2.171875 -2.75 C 2.398438 -2.320312 2.691406 -1.957031 3.046875 -1.65625 C 3.398438 -1.363281 3.804688 -1.132812 4.265625 -0.96875 C 4.722656 -0.8125 5.21875 -0.734375 5.75 -0.734375 C 6.632812 -0.734375 7.332031 -0.941406 7.84375 -1.359375 C 8.351562 -1.773438 8.609375 -2.34375 8.609375 -3.0625 C 8.609375 -3.351562 8.554688 -3.625 8.453125 -3.875 C 8.359375 -4.125 8.191406 -4.363281 7.953125 -4.59375 C 7.710938 -4.832031 7.394531 -5.0625 7 -5.28125 C 6.601562 -5.507812 6.097656 -5.757812 5.484375 -6.03125 C 4.742188 -6.34375 4.125 -6.648438 3.625 -6.953125 C 3.125 -7.253906 2.722656 -7.5625 2.421875 -7.875 C 2.128906 -8.195312 1.921875 -8.539062 1.796875 -8.90625 C 1.671875 -9.269531 1.609375 -9.6875 1.609375 -10.15625 C 1.609375 -10.695312 1.707031 -11.203125 1.90625 -11.671875 C 2.101562 -12.140625 2.378906 -12.539062 2.734375 -12.875 C 3.085938 -13.21875 3.507812 -13.476562 4 -13.65625 C 4.488281 -13.84375 5.023438 -13.9375 5.609375 -13.9375 C 6.140625 -13.9375 6.628906 -13.851562 7.078125 -13.6875 C 7.523438 -13.519531 7.984375 -13.253906 8.453125 -12.890625 L 8.921875 -13.6875 L 9.328125 -13.6875 L 9.53125 -10.140625 L 8.859375 -10.140625 C 8.578125 -11.109375 8.164062 -11.832031 7.625 -12.3125 C 7.082031 -12.789062 6.429688 -13.03125 5.671875 -13.03125 C 4.941406 -13.03125 4.359375 -12.847656 3.921875 -12.484375 C 3.492188 -12.128906 3.28125 -11.648438 3.28125 -11.046875 C 3.28125 -10.765625 3.328125 -10.503906 3.421875 -10.265625 C 3.523438 -10.035156 3.679688 -9.816406 3.890625 -9.609375 C 4.109375 -9.398438 4.390625 -9.191406 4.734375 -8.984375 C 5.078125 -8.773438 5.507812 -8.554688 6.03125 -8.328125 C 6.90625 -7.929688 7.632812 -7.5625 8.21875 -7.21875 C 8.800781 -6.882812 9.265625 -6.546875 9.609375 -6.203125 C 9.960938 -5.867188 10.207031 -5.515625 10.34375 -5.140625 C 10.488281 -4.765625 10.5625 -4.34375 10.5625 -3.875 C 10.5625 -3.28125 10.441406 -2.734375 10.203125 -2.234375 C 9.960938 -1.734375 9.628906 -1.300781 9.203125 -0.9375 C 8.773438 -0.582031 8.265625 -0.304688 7.671875 -0.109375 C 7.078125 0.078125 6.421875 0.171875 5.703125 0.171875 C 5.023438 0.171875 4.414062 0.078125 3.875 -0.109375 C 3.332031 -0.296875 2.78125 -0.617188 2.21875 -1.078125 L 1.71875 -0.203125 L 1.3125 -0.203125 Z M 1.03125 -4.203125 "/></g></g></g></svg>